<svg xmlns="http://www.w3.org/2000/svg" width="1600" height="480" viewBox="0 0 1600 480" role="img" aria-label="MiseOS MCP Foundry visual system hero"><defs><linearGradient id="b" x1="0" y1="0" x2="1" y2="1"><stop stop-color="#050914"/><stop offset=".5" stop-color="#08172E"/><stop offset="1" stop-color="#07101B"/></linearGradient><radialGradient id="h"><stop stop-color="#32A8FF" stop-opacity=".34"/><stop offset="1" stop-color="#8B5CFF" stop-opacity="0"/></radialGradient><pattern id="g" width="48" height="48" patternUnits="userSpaceOnUse"><path d="M48 0H0V48" fill="none" stroke="#7EBBFF" stroke-opacity=".08"/></pattern><filter id="z"><feGaussianBlur stdDeviation="14" result="x"/><feMerge><feMergeNode in="x"/><feMergeNode in="SourceGraphic"/></feMerge></filter></defs><rect width="1600" height="480" fill="url(#b)"/><rect width="1600" height="480" fill="url(#g)"/><circle cx="1280" cy="220" r="220" fill="url(#h)"/><path d="M0 394C420 320 860 460 1600 344V480H0Z" fill="#091426"/><g transform="translate(1110 78)" fill="none" stroke="#32A8FF" stroke-width="4" filter="url(#z)"><path d="M160 0l130 75v150l-130 75L30 225V75Z"/><path d="M160 54l82 47v95l-82 47-82-47v-95Z" stroke="#8B5CFF"/><circle cx="160" cy="150" r="42"/><path d="M118 150h84M160 108v84"/></g><text x="112" y="72" font-family="monospace" font-size="27" letter-spacing="4" fill="#32A8FF">HUMAN-GATED AGENT CONTROL PLANE</text><text x="112" y="220" font-family="Arial" font-size="92" font-weight="800" fill="#fff" filter="url(#z)">MiseOS MCP Foundry</text><text x="112" y="288" font-family="Arial" font-size="36" fill="#D8E9FF">Ingest. Plan. Approve. Execute. Verify.</text><g transform="translate(112 366)"><rect width="650" height="48" rx="20" fill="#fff" fill-opacity=".08" stroke="#32A8FF" stroke-opacity=".7"/><text x="28" y="31" font-family="monospace" font-size="21" fill="#fff">MCP Registry  •  Docker  •  GitHub App  •  Product Hunt</text></g><text x="112" y="456" font-family="monospace" font-size="16" fill="#8FA7C8">GOODSHYT / MISEOS  ·  BUILD • TRACE • APPROVE • VERIFY</text></svg>
